<svg width="53" height="54" viewBox="0 0 53 54" fill="none" xmlns="http://www.w3.org/2000/svg">
<path fill-rule="evenodd" clip-rule="evenodd" d="M26.4835 0.855225C31.5829 0.855225 35.9905 7.01284 38 15.8552C34.7717 13.1437 31.2667 11.5275 27.597 11.2337C27.2346 11.1268 26.8591 11.0734 26.4835 11.0734C26.1212 11.0734 25.772 11.1268 25.4294 11.2203C21.7531 11.4607 18.2415 13.0235 15 15.6949C17.0292 6.94605 21.4171 0.855225 26.4835 0.855225Z" fill="#09ABE4"/>
<path fill-rule="evenodd" clip-rule="evenodd" d="M39.5967 23.7129C39.6035 23.7267 39.6035 23.7267 39.6035 23.7406C45.634 30.1067 50.4243 40.7077 53 53.5784H46.8809C45.8179 44.223 43.1877 35.8916 39.6444 30.0098C38.9562 43.3788 33.3618 53.8552 26.609 53.8552C19.8154 53.8552 14.2006 43.268 13.56 29.8022C9.94857 35.6978 7.19568 44.1122 6.11905 53.5784H0C2.60298 40.5555 7.52276 29.8161 13.6486 23.4776C13.6486 23.4914 13.6486 23.4914 13.6486 23.5053C15.6043 21.4847 17.6962 19.907 19.8767 18.8552C19.1408 21.291 18.7115 24.1696 18.7115 27.2281C18.7115 36.0715 22.2548 43.268 26.609 43.268C30.9564 43.268 34.5066 36.0715 34.5066 27.2281C34.5066 24.1973 34.0841 21.3602 33.3618 18.9383C35.5491 20.0454 37.641 21.6508 39.5967 23.7129Z" fill="#282696"/>
</svg>
