<svg width="21" height="20" viewBox="0 0 21 20" fill="none" xmlns="http://www.w3.org/2000/svg">
<g style="mix-blend-mode:multiply">
<path d="M0.8417 20.0001H20.1583C20.4163 20.0001 20.6568 19.8937 20.8183 19.7084C20.9585 19.5478 21.0206 19.3439 20.994 19.1345C20.541 15.5714 18.3711 12.6023 15.4004 11.0193C14.1448 12.287 12.4115 13.0722 10.5 13.0722C8.58859 13.0722 6.85515 12.287 5.59962 11.0193C2.62892 12.6019 0.458566 15.5714 0.00601013 19.1345C-0.0206257 19.3439 0.0418628 19.5482 0.181722 19.7084C0.343144 19.8937 0.583712 20.0001 0.8417 20.0001Z" fill="url(#paint0_linear_1_318)"/>
<path d="M6.14733 10.2489C6.26004 10.3682 6.37775 10.4819 6.4996 10.592C7.56385 11.5532 8.96337 12.1429 10.5 12.1429C12.0366 12.1429 13.4361 11.5527 14.5003 10.592C14.6222 10.4819 14.74 10.3681 14.8526 10.2489C14.9648 10.1295 15.0743 10.0074 15.1773 9.87928C16.0111 8.83676 16.5133 7.51293 16.5133 6.07154C16.5133 2.72347 13.8154 6.51361e-09 10.4999 6.51361e-09C7.18435 6.51361e-09 4.4866 2.7239 4.4866 6.07146C4.4866 7.51285 4.98879 8.83676 5.82262 9.87919C5.92519 10.0074 6.03461 10.1291 6.14733 10.2489Z" fill="url(#paint1_linear_1_318)"/>
</g>
<defs>
<linearGradient id="paint0_linear_1_318" x1="24.36" y1="5.00005" x2="-0.728963" y2="20.5953" gradientUnits="userSpaceOnUse">
<stop stop-color="#282696" stop-opacity="0.96"/>
<stop offset="1" stop-color="#09ABE4"/>
</linearGradient>
<linearGradient id="paint1_linear_1_318" x1="22.2599" y1="5.53287e-07" x2="0.0733402" y2="11.393" gradientUnits="userSpaceOnUse">
<stop stop-color="#282696" stop-opacity="0.96"/>
<stop offset="1" stop-color="#09ABE4"/>
</linearGradient>
</defs>
</svg>
